<svg width="34" height="34" viewBox="0 0 34 34" fill="none" xmlns="http://www.w3.org/2000/svg">
<path d="M17 21.25C19.3472 21.25 21.25 19.3472 21.25 17C21.25 14.6528 19.3472 12.75 17 12.75C14.6528 12.75 12.75 14.6528 12.75 17C12.75 19.3472 14.6528 21.25 17 21.25Z" fill="black"/>
<path d="M32.8738 16.6388C31.6241 13.4063 29.4546 10.6108 26.6335 8.59784C23.8124 6.5849 20.4632 5.44273 17 5.3125C13.5368 5.44273 10.1877 6.5849 7.36656 8.59784C4.54543 10.6108 2.37596 13.4063 1.12629 16.6388C1.04189 16.8722 1.04189 17.1278 1.12629 17.3612C2.37596 20.5937 4.54543 23.3892 7.36656 25.4022C10.1877 27.4151 13.5368 28.5573 17 28.6875C20.4632 28.5573 23.8124 27.4151 26.6335 25.4022C29.4546 23.3892 31.6241 20.5937 32.8738 17.3612C32.9582 17.1278 32.9582 16.8722 32.8738 16.6388ZM17 23.9062C15.6341 23.9062 14.2989 23.5012 13.1631 22.7423C12.0274 21.9835 11.1422 20.9049 10.6195 19.6429C10.0968 18.381 9.96001 16.9923 10.2265 15.6527C10.493 14.313 11.1507 13.0824 12.1166 12.1165C13.0824 11.1507 14.313 10.4929 15.6527 10.2265C16.9924 9.95997 18.381 10.0967 19.6429 10.6195C20.9049 11.1422 21.9835 12.0274 22.7424 13.1631C23.5012 14.2988 23.9063 15.6341 23.9063 17C23.9035 18.8308 23.175 20.5858 21.8804 21.8804C20.5858 23.1749 18.8308 23.9034 17 23.9062Z" fill="black"/>
</svg>
