<svg width="24" height="24" viewBox="0 0 24 24" fill="none" xmlns="http://www.w3.org/2000/svg">
<g clip-path="url(#clip0_751_1872)">
<path d="M7.33333 11L6.66667 13.0667H8L7.33333 11Z" fill="#082F49"/>
<path d="M20.2 2H9.53333V5.33333H12.2V6.66667H3.53333C2.4 6.66667 1.53333 7.53333 1.53333 8.66667V16C1.53333 17.1333 2.4 18 3.53333 18H4.2V21.4L8.4 18H12.8667V13.3333H20.2C21.3333 13.3333 22.2 12.4667 22.2 11.3333V4C22.2 2.86667 21.3333 2 20.2 2ZM8.73333 15.2667L8.4 14.2H6.33333L5.93333 15.2667H4.33333L6.53333 9.33333H8.13333L10.3333 15.2667H8.73333ZM18.8667 10V11.3333C18 11.3333 17.0667 11.0667 16.2667 10.6667C15.4667 11.0667 14.5333 11.2667 13.6 11.3333L13.5333 10C14 10 14.4667 9.93333 14.9333 9.8C14.3333 9.2 13.9333 8.46667 13.7333 7.66667H15.1333C15.3333 8.26667 15.7333 8.73333 16.2 9.13333C16.9333 8.53333 17.4 7.66667 17.4667 6.66667H13.4667V5.33333H15.4667V4H16.8V5.33333H19L19.0667 6C19.1333 7.4 18.6 8.8 17.6 9.8C18.0667 9.93333 18.4667 10 18.8667 10Z" fill="#082F49"/>
</g>
<defs>
<clipPath id="clip0_751_1872">
<rect width="24" height="24" fill="white"/>
</clipPath>
</defs>
</svg>
