<svg width="34" height="34" viewBox="0 0 34 34" fill="none" xmlns="http://www.w3.org/2000/svg">
<path d="M23.5104 17.3333C26.1921 17.3333 28.4993 14.9388 28.4993 11.8205C28.4993 8.73983 26.18 6.45758 23.5104 6.45758C20.8414 6.45758 18.5215 8.78962 18.5215 11.8454C18.5215 14.9388 20.8286 17.3333 23.5104 17.3333ZM9.1545 17.6205C11.4744 17.6205 13.4956 15.5247 13.4956 12.818C13.4956 10.1369 11.4616 8.15333 9.1545 8.15333C6.83521 8.15333 4.78914 10.1867 4.80189 12.8435C4.80189 15.5247 6.82246 17.6205 9.15511 17.6205M2.19543 28.883H11.6741C10.3773 26.9997 11.9613 23.208 14.6431 21.1377C13.2588 20.2148 11.4744 19.5288 9.14236 19.5288C3.51718 19.5282 0 23.681 0 27.1363C0 28.2595 0.623536 28.883 2.19543 28.883ZM15.6655 28.883H31.3431C33.3012 28.883 34 28.3214 34 27.2237C34 24.0058 29.971 19.5658 23.4982 19.5658C17.0376 19.5658 13.0086 24.0058 13.0086 27.2243C13.0086 28.3214 13.7069 28.883 15.6655 28.883Z" fill="black"/>
</svg>
