<svg width="34" height="34" viewBox="0 0 34 34" fill="none" xmlns="http://www.w3.org/2000/svg">
<path d="M8.0749 6.79999C6.83501 6.79999 5.64591 7.29253 4.76918 8.16926C3.89245 9.046 3.3999 10.2351 3.3999 11.475V13.6H30.5999V11.475C30.5999 10.2351 30.1074 9.046 29.2306 8.16926C28.3539 7.29253 27.1648 6.79999 25.9249 6.79999H8.0749ZM30.5999 15.3H3.3999V22.525C3.3999 23.7649 3.89245 24.954 4.76918 25.8307C5.64591 26.7074 6.83501 27.2 8.0749 27.2H25.9249C27.1648 27.2 28.3539 26.7074 29.2306 25.8307C30.1074 24.954 30.5999 23.7649 30.5999 22.525V15.3ZM22.9499 22.1H26.3499C26.5753 22.1 26.7915 22.1895 26.9509 22.3489C27.1103 22.5084 27.1999 22.7246 27.1999 22.95C27.1999 23.1754 27.1103 23.3916 26.9509 23.551C26.7915 23.7104 26.5753 23.8 26.3499 23.8H22.9499C22.7245 23.8 22.5083 23.7104 22.3489 23.551C22.1895 23.3916 22.0999 23.1754 22.0999 22.95C22.0999 22.7246 22.1895 22.5084 22.3489 22.3489C22.5083 22.1895 22.7245 22.1 22.9499 22.1Z" fill="black"/>
</svg>
