<svg width="34" height="34" viewBox="0 0 34 34" fill="none" xmlns="http://www.w3.org/2000/svg">
<path d="M2.125 7.4375C2.125 6.02854 2.68471 4.67728 3.681 3.681C4.67728 2.68471 6.02854 2.125 7.4375 2.125H22.3125C23.7215 2.125 25.0727 2.68471 26.069 3.681C27.0653 4.67728 27.625 6.02854 27.625 7.4375V13.1899C26.5879 12.897 25.5152 12.749 24.4375 12.75C21.9364 12.75 19.618 13.5363 17.7161 14.875H11.1562C9.69 14.875 8.41925 16.0756 8.67 17.5228C9.00575 19.4629 10.0045 21.5305 12.9774 22.134C12.6108 23.9552 12.6836 25.8376 13.1899 27.625H7.4375C6.02854 27.625 4.67728 27.0653 3.681 26.069C2.68471 25.0727 2.125 23.7215 2.125 22.3125V7.4375ZM11.6875 9.5625C11.6875 9.98109 11.7699 10.3956 11.9301 10.7823C12.0903 11.169 12.3251 11.5204 12.6211 11.8164C12.9171 12.1124 13.2685 12.3472 13.6552 12.5074C14.0419 12.6676 14.4564 12.75 14.875 12.75C15.2936 12.75 15.7081 12.6676 16.0948 12.5074C16.4815 12.3472 16.8329 12.1124 17.1289 11.8164C17.4249 11.5204 17.6597 11.169 17.8199 10.7823C17.9801 10.3956 18.0625 9.98109 18.0625 9.5625C18.0625 8.71712 17.7267 7.90637 17.1289 7.3086C16.5311 6.71082 15.7204 6.375 14.875 6.375C14.0296 6.375 13.2189 6.71082 12.6211 7.3086C12.0233 7.90637 11.6875 8.71712 11.6875 9.5625ZM34 24.4375C34 26.9736 32.9925 29.4059 31.1992 31.1992C29.4059 32.9925 26.9736 34 24.4375 34C21.9014 34 19.4691 32.9925 17.6758 31.1992C15.8825 29.4059 14.875 26.9736 14.875 24.4375C14.875 21.9014 15.8825 19.4691 17.6758 17.6758C19.4691 15.8825 21.9014 14.875 24.4375 14.875C26.9736 14.875 29.4059 15.8825 31.1992 17.6758C32.9925 19.4691 34 21.9014 34 24.4375ZM25.5 20.1875C25.5 19.9057 25.3881 19.6355 25.1888 19.4362C24.9895 19.2369 24.7193 19.125 24.4375 19.125C24.1557 19.125 23.8855 19.2369 23.6862 19.4362C23.4869 19.6355 23.375 19.9057 23.375 20.1875V23.375H20.1875C19.9057 23.375 19.6355 23.4869 19.4362 23.6862C19.2369 23.8855 19.125 24.1557 19.125 24.4375C19.125 24.7193 19.2369 24.9895 19.4362 25.1888C19.6355 25.3881 19.9057 25.5 20.1875 25.5H23.375V28.6875C23.375 28.9693 23.4869 29.2395 23.6862 29.4388C23.8855 29.6381 24.1557 29.75 24.4375 29.75C24.7193 29.75 24.9895 29.6381 25.1888 29.4388C25.3881 29.2395 25.5 28.9693 25.5 28.6875V25.5H28.6875C28.9693 25.5 29.2395 25.3881 29.4388 25.1888C29.6381 24.9895 29.75 24.7193 29.75 24.4375C29.75 24.1557 29.6381 23.8855 29.4388 23.6862C29.2395 23.4869 28.9693 23.375 28.6875 23.375H25.5V20.1875Z" fill="black"/>
</svg>
