<svg width="20" height="11" viewBox="0 0 20 11" fill="none" xmlns="http://www.w3.org/2000/svg">
<path d="M15.625 6.11114H4.375C4.025 6.11114 3.75 5.84225 3.75 5.50003C3.75 5.1578 4.025 4.88892 4.375 4.88892H15.625C15.975 4.88892 16.25 5.1578 16.25 5.50003C16.25 5.84225 15.975 6.11114 15.625 6.11114Z" fill="black"/>
<path d="M12.5 10.3889C12.418 10.3899 12.3368 10.3741 12.2614 10.3425C12.1861 10.3109 12.1183 10.2643 12.0625 10.2056C11.8125 9.96111 11.8125 9.58222 12.0625 9.33778L16 5.48778L12.0625 1.63778C11.8125 1.39334 11.8125 1.01445 12.0625 0.770003C12.3125 0.525559 12.7 0.525559 12.95 0.770003L17.325 5.04778C17.575 5.29223 17.575 5.67111 17.325 5.91556L12.95 10.1933C12.825 10.3156 12.6625 10.3767 12.5125 10.3767L12.5 10.3889Z" fill="black"/>
</svg>
