<svg width="34" height="34" viewBox="0 0 34 34" fill="none" xmlns="http://www.w3.org/2000/svg">
<path fill-rule="evenodd" clip-rule="evenodd" d="M23.0521 14.552C23.0521 16.0549 22.4551 17.4962 21.3924 18.5589C20.3296 19.6216 18.8883 20.2186 17.3854 20.2186C15.8825 20.2186 14.4412 19.6216 13.3785 18.5589C12.3158 17.4962 11.7188 16.0549 11.7188 14.552C11.7188 13.0491 12.3158 11.6077 13.3785 10.545C14.4412 9.48234 15.8825 8.88531 17.3854 8.88531C18.8883 8.88531 20.3296 9.48234 21.3924 10.545C22.4551 11.6077 23.0521 13.0491 23.0521 14.552ZM20.2187 14.552C20.2187 15.3034 19.9202 16.0241 19.3889 16.5554C18.8575 17.0868 18.1369 17.3853 17.3854 17.3853C16.634 17.3853 15.9133 17.0868 15.3819 16.5554C14.8506 16.0241 14.5521 15.3034 14.5521 14.552C14.5521 13.8005 14.8506 13.0799 15.3819 12.5485C15.9133 12.0172 16.634 11.7186 17.3854 11.7186C18.1369 11.7186 18.8575 12.0172 19.3889 12.5485C19.9202 13.0799 20.2187 13.8005 20.2187 14.552Z" fill="black"/>
<path fill-rule="evenodd" clip-rule="evenodd" d="M8.20817 23.4005C6.38186 21.6616 5.1122 19.4203 4.55974 16.9598C4.00728 14.4993 4.19684 11.9303 5.10446 9.57759C6.01207 7.22486 7.59696 5.19411 9.65872 3.74214C11.7205 2.29016 14.1665 1.48218 16.6875 1.42037C19.2084 1.35855 21.6911 2.04568 23.8215 3.39486C25.952 4.74404 27.6345 6.69467 28.6563 9.00008C29.6782 11.3055 29.9934 13.8621 29.5622 16.3467C29.131 18.8313 27.9727 21.1322 26.2338 22.9585L17.442 32.1923L8.20817 23.4005ZM24.1825 21.0049L17.3443 28.1874L10.1618 21.3492C8.74136 19.9967 7.7539 18.2535 7.32424 16.3398C6.89458 14.4262 7.04202 12.4281 7.74792 10.5982C8.45381 8.76836 9.68646 7.18892 11.29 6.0596C12.8935 4.93029 14.7959 4.30183 16.7566 4.25369C18.7173 4.20554 20.6483 4.73989 22.3053 5.78915C23.9623 6.8384 25.271 8.35545 26.0658 10.1485C26.8607 11.9415 27.106 13.9299 26.7708 15.8623C26.4355 17.7948 25.5348 19.5844 24.1825 21.0049Z" fill="black"/>
</svg>
