<svg width="30" height="30" viewBox="0 0 30 30" fill="none" xmlns="http://www.w3.org/2000/svg">
<path d="M23.75 5H22.5V3.75C22.5 3.0625 21.9375 2.5 21.25 2.5C20.5625 2.5 20 3.0625 20 3.75V5H10V3.75C10 3.0625 9.4375 2.5 8.75 2.5C8.0625 2.5 7.5 3.0625 7.5 3.75V5H6.25C4.8625 5 3.7625 6.125 3.7625 7.5L3.75 25C3.75 25.663 4.01339 26.2989 4.48223 26.7678C4.95107 27.2366 5.58696 27.5 6.25 27.5H23.75C25.125 27.5 26.25 26.375 26.25 25V7.5C26.25 6.125 25.125 5 23.75 5ZM23.75 23.75C23.75 24.4375 23.1875 25 22.5 25H7.5C6.8125 25 6.25 24.4375 6.25 23.75V11.25H23.75V23.75ZM8.75 13.75H11.25V16.25H8.75V13.75ZM13.75 13.75H16.25V16.25H13.75V13.75ZM18.75 13.75H21.25V16.25H18.75V13.75Z" fill="black"/>
</svg>
