<svg width="20" height="11" viewBox="0 0 20 11" fill="none" xmlns="http://www.w3.org/2000/svg">
<path d="M-1.38432e-05 10.1819V6.62804e-05H1.53621V4.86228H1.6605L5.93109 6.62804e-05H7.86504L3.75851 4.58387L7.87996 10.1819H6.03053L2.73933 5.63288L1.53621 7.01498V10.1819H-1.38432e-05ZM9.17754 10.1819V2.54552H10.6044V3.78842H10.6988C10.8579 3.36749 11.1181 3.03937 11.4794 2.80404C11.8407 2.56541 12.2732 2.44609 12.777 2.44609C13.2874 2.44609 13.7149 2.56541 14.0596 2.80404C14.4077 3.04268 14.6645 3.3708 14.8302 3.78842H14.9098C15.0921 3.38075 15.3821 3.05594 15.7798 2.81399C16.1775 2.56872 16.6515 2.44609 17.2017 2.44609C17.8944 2.44609 18.4595 2.66318 18.897 3.09737C19.3378 3.53155 19.5582 4.18615 19.5582 5.06115V10.1819H18.0717V5.20035C18.0717 4.68331 17.9309 4.30878 17.6491 4.07677C17.3674 3.84476 17.031 3.72876 16.6399 3.72876C16.156 3.72876 15.7798 3.87791 15.5113 4.1762C15.2429 4.47118 15.1087 4.85068 15.1087 5.3147V10.1819H13.6271V5.10589C13.6271 4.69159 13.4979 4.35849 13.2393 4.1066C12.9808 3.85471 12.6444 3.72876 12.2301 3.72876C11.9484 3.72876 11.6882 3.80333 11.4496 3.95248C11.2142 4.09831 11.0237 4.30215 10.8778 4.56399C10.7353 4.82582 10.664 5.12909 10.664 5.47379V10.1819H9.17754Z" fill="#D4D4D4"/>
</svg>
