<svg width="30" height="30" viewBox="0 0 30 30" fill="none" xmlns="http://www.w3.org/2000/svg">
<path d="M15 15C17.0711 15 18.75 13.3211 18.75 11.25C18.75 9.17893 17.0711 7.5 15 7.5C12.9289 7.5 11.25 9.17893 11.25 11.25C11.25 13.3211 12.9289 15 15 15Z" fill="#075985"/>
<path fill-rule="evenodd" clip-rule="evenodd" d="M21.8137 19.885C21.8472 19.948 21.8572 20.0208 21.8418 20.0904C21.8265 20.1601 21.7868 20.2219 21.73 20.265C19.788 21.7193 17.4262 22.5036 15 22.5C12.5738 22.5036 10.212 21.7193 8.26999 20.265C8.21315 20.2219 8.1735 20.1601 8.15815 20.0904C8.14281 20.0208 8.15277 19.948 8.18624 19.885C9.37374 17.74 11.9775 16.25 15 16.25C18.0225 16.25 20.6262 17.7387 21.8137 19.885Z" fill="#075985"/>
<path d="M21.25 5H21.8775C23.3913 5 24.1488 5 24.7288 5.29C25.2617 5.55622 25.6938 5.9883 25.96 6.52125C26.25 7.1 26.25 7.85875 26.25 9.3725V10M21.25 25H21.8775C23.3913 25 24.1488 25 24.7288 24.71C25.2617 24.4438 25.6938 24.0117 25.96 23.4788C26.25 22.8988 26.25 22.1413 26.25 20.6275V20M8.75 5H8.1225C6.60875 5 5.85125 5 5.27125 5.29C4.7383 5.55622 4.30622 5.9883 4.04 6.52125C3.75 7.1 3.75 7.85875 3.75 9.3725V10M8.75 25H8.1225C6.60875 25 5.85125 25 5.27125 24.71C4.7383 24.4438 4.30622 24.0117 4.04 23.4788C3.75 22.9 3.75 22.1413 3.75 20.6275V20" stroke="#075985" stroke-width="2" stroke-linecap="round"/>
</svg>
