<svg width="34" height="34" viewBox="0 0 34 34" fill="none" xmlns="http://www.w3.org/2000/svg">
<path d="M16.9998 28.3333C13.8359 28.3333 11.1561 27.2354 8.96025 25.0396C6.76442 22.8437 5.6665 20.1639 5.6665 17C5.6665 13.8361 6.76442 11.1562 8.96025 8.96041C11.1561 6.76458 13.8359 5.66666 16.9998 5.66666C18.629 5.66666 20.1873 6.00288 21.6748 6.67533C23.1623 7.34777 24.4373 8.31016 25.4998 9.56249V7.08333C25.4998 6.68194 25.6358 6.34572 25.9078 6.07466C26.1798 5.80361 26.5161 5.66761 26.9165 5.66666C27.317 5.66572 27.6536 5.80172 27.9266 6.07466C28.1995 6.34761 28.3351 6.68383 28.3332 7.08333V14.1667C28.3332 14.568 28.1972 14.9047 27.9252 15.1767C27.6532 15.4487 27.317 15.5843 26.9165 15.5833H19.8332C19.4318 15.5833 19.0956 15.4473 18.8245 15.1753C18.5535 14.9033 18.4174 14.5671 18.4165 14.1667C18.4156 13.7662 18.5516 13.43 18.8245 13.158C19.0975 12.886 19.4337 12.75 19.8332 12.75H24.3665C23.611 11.4278 22.5782 10.3889 21.2683 9.63333C19.9583 8.87777 18.5355 8.49999 16.9998 8.49999C14.6387 8.49999 12.6318 9.32638 10.979 10.9792C9.32623 12.6319 8.49984 14.6389 8.49984 17C8.49984 19.3611 9.32623 21.368 10.979 23.0208C12.6318 24.6736 14.6387 25.5 16.9998 25.5C18.6054 25.5 20.0754 25.0929 21.4099 24.2788C22.7444 23.4647 23.7772 22.3725 24.5082 21.0021C24.6971 20.6715 24.9629 20.4415 25.3058 20.3122C25.6486 20.1828 25.9966 20.1766 26.3498 20.2937C26.7276 20.4118 26.9991 20.6597 27.1644 21.0375C27.3297 21.4153 27.3179 21.7694 27.129 22.1C26.161 23.9889 24.7797 25.5 22.9853 26.6333C21.1908 27.7667 19.1957 28.3333 16.9998 28.3333Z" fill="black"/>
</svg>
