<svg width="34" height="34" viewBox="0 0 34 34" fill="none" xmlns="http://www.w3.org/2000/svg">
<path d="M16.9998 17C15.4415 17 14.1075 16.4451 12.9978 15.3354C11.888 14.2257 11.3332 12.8917 11.3332 11.3333C11.3332 9.77499 11.888 8.44096 12.9978 7.33124C14.1075 6.22152 15.4415 5.66666 16.9998 5.66666C18.5582 5.66666 19.8922 6.22152 21.0019 7.33124C22.1116 8.44096 22.6665 9.77499 22.6665 11.3333C22.6665 12.8917 22.1116 14.2257 21.0019 15.3354C19.8922 16.4451 18.5582 17 16.9998 17ZM5.6665 25.5V24.3667C5.6665 23.5639 5.87334 22.8263 6.287 22.1538C6.70067 21.4814 7.24939 20.9676 7.93317 20.6125C9.39706 19.8805 10.8846 19.3318 12.3957 18.9663C13.9068 18.6008 15.4415 18.4176 16.9998 18.4167C18.5582 18.4157 20.0929 18.5989 21.604 18.9663C23.1151 19.3337 24.6026 19.8824 26.0665 20.6125C26.7512 20.9667 27.3004 21.4804 27.7141 22.1538C28.1278 22.8272 28.3341 23.5648 28.3332 24.3667V25.5C28.3332 26.2792 28.056 26.9464 27.5016 27.5017C26.9472 28.0571 26.2799 28.3343 25.4998 28.3333H8.49984C7.72067 28.3333 7.05389 28.0561 6.4995 27.5017C5.94511 26.9473 5.66745 26.2801 5.6665 25.5ZM8.49984 25.5H25.4998V24.3667C25.4998 24.1069 25.4351 23.8708 25.3058 23.6583C25.1764 23.4458 25.0049 23.2805 24.7915 23.1625C23.5165 22.525 22.2297 22.0471 20.9311 21.7288C19.6325 21.4105 18.3221 21.2509 16.9998 21.25C15.6776 21.249 14.3672 21.4087 13.0686 21.7288C11.77 22.049 10.4832 22.5269 9.20817 23.1625C8.99567 23.2805 8.82425 23.4458 8.69392 23.6583C8.56359 23.8708 8.49889 24.1069 8.49984 24.3667V25.5ZM16.9998 14.1667C17.779 14.1667 18.4463 13.8895 19.0016 13.3351C19.5569 12.7807 19.8341 12.1134 19.8332 11.3333C19.8322 10.5532 19.555 9.88643 19.0016 9.33299C18.4481 8.77954 17.7809 8.50188 16.9998 8.49999C16.2188 8.4981 15.552 8.77577 14.9995 9.33299C14.447 9.89021 14.1693 10.557 14.1665 11.3333C14.1637 12.1097 14.4413 12.7769 14.9995 13.3351C15.5577 13.8932 16.2244 14.1704 16.9998 14.1667Z" fill="black"/>
</svg>
