<svg width="34" height="34" viewBox="0 0 34 34" fill="none" xmlns="http://www.w3.org/2000/svg">
<path d="M8.49984 28.3333C7.31928 28.3333 6.31581 27.9201 5.48942 27.0937C4.66303 26.2673 4.24984 25.2639 4.24984 24.0833H2.83317C2.43178 24.0833 2.09556 23.9473 1.8245 23.6753C1.55345 23.4033 1.41745 23.0671 1.4165 22.6667V8.49999C1.4165 7.72082 1.69417 7.05404 2.2495 6.49966C2.80484 5.94527 3.47161 5.6676 4.24984 5.66666H21.2498C22.029 5.66666 22.6963 5.94432 23.2516 6.49966C23.8069 7.05499 24.0841 7.72177 24.0832 8.49999V11.3333H26.9165C27.3651 11.3333 27.7901 11.4339 28.1915 11.6351C28.5929 11.8362 28.9234 12.1134 29.1832 12.4667L32.2998 16.6104C32.3943 16.7285 32.4651 16.8583 32.5123 17C32.5596 17.1417 32.5832 17.2951 32.5832 17.4604V22.6667C32.5832 23.068 32.4472 23.4047 32.1752 23.6767C31.9032 23.9487 31.5669 24.0843 31.1665 24.0833H29.7498C29.7498 25.2639 29.3366 26.2673 28.5103 27.0937C27.6839 27.9201 26.6804 28.3333 25.4998 28.3333C24.3193 28.3333 23.3158 27.9201 22.4894 27.0937C21.663 26.2673 21.2498 25.2639 21.2498 24.0833H12.7498C12.7498 25.2639 12.3366 26.2673 11.5103 27.0937C10.6839 27.9201 9.68039 28.3333 8.49984 28.3333ZM8.49984 25.5C8.90123 25.5 9.23792 25.364 9.50992 25.092C9.78192 24.82 9.91745 24.4838 9.9165 24.0833C9.91556 23.6829 9.77956 23.3467 9.5085 23.0747C9.23745 22.8027 8.90123 22.6667 8.49984 22.6667C8.09845 22.6667 7.76223 22.8027 7.49117 23.0747C7.22011 23.3467 7.08411 23.6829 7.08317 24.0833C7.08223 24.4838 7.21823 24.8205 7.49117 25.0934C7.76411 25.3663 8.10034 25.5019 8.49984 25.5ZM25.4998 25.5C25.9012 25.5 26.2379 25.364 26.5099 25.092C26.7819 24.82 26.9174 24.4838 26.9165 24.0833C26.9156 23.6829 26.7796 23.3467 26.5085 23.0747C26.2374 22.8027 25.9012 22.6667 25.4998 22.6667C25.0984 22.6667 24.7622 22.8027 24.4912 23.0747C24.2201 23.3467 24.0841 23.6829 24.0832 24.0833C24.0822 24.4838 24.2182 24.8205 24.4912 25.0934C24.7641 25.3663 25.1003 25.5019 25.4998 25.5ZM24.0832 18.4167H30.104L26.9165 14.1667H24.0832V18.4167Z" fill="black"/>
</svg>
