<svg width="34" height="34" viewBox="0 0 34 34" fill="none" xmlns="http://www.w3.org/2000/svg">
<path d="M11.3333 29.75C10.5541 29.75 9.88731 29.4728 9.33292 28.9184C8.77853 28.364 8.50086 27.6968 8.49992 26.9167V24.0833H5.66659C4.88742 24.0833 4.22064 23.8061 3.66625 23.2517C3.11186 22.6974 2.8342 22.0301 2.83325 21.25V15.5833C2.83325 14.3792 3.24645 13.37 4.07284 12.5559C4.89922 11.7418 5.9027 11.3343 7.08325 11.3333H26.9166C28.1208 11.3333 29.1304 11.7409 29.9454 12.5559C30.7605 13.371 31.1675 14.3801 31.1666 15.5833V21.25C31.1666 22.0292 30.8894 22.6964 30.335 23.2517C29.7806 23.8071 29.1134 24.0843 28.3333 24.0833H25.4999V26.9167C25.4999 27.6958 25.2227 28.3631 24.6683 28.9184C24.1139 29.4737 23.4467 29.7509 22.6666 29.75H11.3333ZM25.4999 9.91667H8.49992V7.08333C8.49992 6.30417 8.77759 5.63739 9.33292 5.083C9.88825 4.52861 10.555 4.25094 11.3333 4.25H22.6666C23.4458 4.25 24.113 4.52767 24.6683 5.083C25.2237 5.63833 25.5009 6.30511 25.4999 7.08333V9.91667ZM25.4999 17.7083C25.9013 17.7083 26.238 17.5723 26.51 17.3003C26.782 17.0283 26.9175 16.6921 26.9166 16.2917C26.9156 15.8912 26.7796 15.555 26.5086 15.283C26.2375 15.011 25.9013 14.875 25.4999 14.875C25.0985 14.875 24.7623 15.011 24.4913 15.283C24.2202 15.555 24.0842 15.8912 24.0833 16.2917C24.0823 16.6921 24.2183 17.0288 24.4913 17.3018C24.7642 17.5747 25.1004 17.7102 25.4999 17.7083ZM11.3333 26.9167H22.6666V21.25H11.3333V26.9167Z" fill="black"/>
</svg>
