<svg width="34" height="34" viewBox="0 0 34 34" fill="none" xmlns="http://www.w3.org/2000/svg">
<path d="M22.6668 4.25C23.7509 4.24994 24.794 4.66413 25.5827 5.40782C26.3714 6.15151 26.8461 7.16848 26.9097 8.25067L26.9168 8.5V22.6667H27.9793C28.8959 22.6667 29.651 23.3637 29.7417 24.2562L29.7502 24.4375V26.9167C29.7502 28.0007 29.336 29.0438 28.5923 29.8325C27.8486 30.6213 26.8317 31.096 25.7495 31.1596L25.5002 31.1667H11.3335C10.2494 31.1667 9.20635 30.7525 8.41763 30.0088C7.6289 29.2652 7.15418 28.2482 7.09058 27.166L7.0835 26.9167V12.75H4.60433C4.16593 12.7502 3.74304 12.5878 3.41749 12.2942C3.09195 12.0005 2.88689 11.5966 2.842 11.1605L2.8335 10.9792V8.5C2.83344 7.41595 3.24762 6.37285 3.99131 5.58413C4.73501 4.79541 5.75198 4.32068 6.83416 4.25708L7.0835 4.25H22.6668ZM26.9168 25.5H14.1668V26.9167C14.1668 27.4125 14.0818 27.8899 13.926 28.3333H25.5002C25.8759 28.3333 26.2362 28.1841 26.5019 27.9184C26.7676 27.6527 26.9168 27.2924 26.9168 26.9167V25.5ZM17.0002 17H14.1668C13.8057 17.0004 13.4584 17.1387 13.1959 17.3865C12.9333 17.6344 12.7753 17.9732 12.7542 18.3336C12.733 18.6941 12.8503 19.049 13.082 19.3259C13.3138 19.6028 13.6425 19.7808 14.0011 19.8234L14.1668 19.8333H17.0002C17.3612 19.8329 17.7085 19.6947 17.9711 19.4468C18.2337 19.1989 18.3917 18.8601 18.4128 18.4997C18.434 18.1392 18.3167 17.7843 18.085 17.5074C17.8532 17.2305 17.5245 17.0526 17.1659 17.0099L17.0002 17ZM19.8335 11.3333H14.1668C13.7911 11.3333 13.4308 11.4826 13.1651 11.7483C12.8994 12.0139 12.7502 12.3743 12.7502 12.75C12.7502 13.1257 12.8994 13.4861 13.1651 13.7517C13.4308 14.0174 13.7911 14.1667 14.1668 14.1667H19.8335C20.2092 14.1667 20.5696 14.0174 20.8352 13.7517C21.1009 13.4861 21.2502 13.1257 21.2502 12.75C21.2502 12.3743 21.1009 12.0139 20.8352 11.7483C20.5696 11.4826 20.2092 11.3333 19.8335 11.3333ZM7.0835 7.08333C6.70777 7.08333 6.34744 7.23259 6.08176 7.49827C5.81608 7.76394 5.66683 8.12428 5.66683 8.5V9.91667H7.0835V7.08333Z" fill="black"/>
</svg>
