<svg width="34" height="34" viewBox="0 0 34 34" fill="none" xmlns="http://www.w3.org/2000/svg">
<path fill-rule="evenodd" clip-rule="evenodd" d="M22.3325 5.66666C23.1217 5.66668 23.8952 5.88643 24.5665 6.30128C25.2378 6.71613 25.7804 7.3097 26.1334 8.01549L28.0969 11.9411C28.4426 11.7994 28.7826 11.6464 29.1169 11.4821C29.4532 11.3141 29.8424 11.2866 30.1989 11.4057C30.5555 11.5247 30.8501 11.7805 31.0181 12.1167C31.186 12.453 31.2135 12.8422 31.0945 13.1988C30.9755 13.5553 30.7197 13.85 30.3834 14.0179C30.0429 14.1695 29.7005 14.3168 29.3563 14.4599L30.7177 17.1842C31.0132 17.7748 31.167 18.4263 31.1668 19.0867V22.6667C31.1668 23.2646 31.0406 23.8558 30.7965 24.4017C30.5524 24.9475 30.1958 25.4357 29.7502 25.8343V27.625C29.7502 28.1886 29.5263 28.7291 29.1278 29.1276C28.7292 29.5261 28.1887 29.75 27.6252 29.75C27.0616 29.75 26.5211 29.5261 26.1226 29.1276C25.724 28.7291 25.5002 28.1886 25.5002 27.625V26.9167H8.50016V27.625C8.50016 28.1886 8.27628 28.7291 7.87776 29.1276C7.47925 29.5261 6.93875 29.75 6.37516 29.75C5.81158 29.75 5.27108 29.5261 4.87256 29.1276C4.47405 28.7291 4.25016 28.1886 4.25016 27.625V25.8343C3.38033 25.0552 2.8335 23.9247 2.8335 22.6667V19.0853C2.83376 18.4258 2.98751 17.7754 3.28258 17.1856L4.63266 14.4826C4.29077 14.339 3.95314 14.1846 3.61975 14.0193C3.28517 13.8492 3.03085 13.5544 2.9116 13.1985C2.79235 12.8426 2.81772 12.4541 2.98225 12.1167C3.06535 11.9502 3.18046 11.8016 3.32099 11.6796C3.46153 11.5575 3.62475 11.4644 3.80131 11.4054C3.97787 11.3465 4.16431 11.3229 4.34999 11.3361C4.53566 11.3492 4.71692 11.3988 4.88341 11.4821C5.21869 11.6474 5.55869 11.8004 5.90341 11.9411L7.86691 8.01691C8.21973 7.31085 8.7622 6.71699 9.43353 6.30188C10.1049 5.88677 10.8785 5.66681 11.6678 5.66666H22.3325ZM10.6252 18.4167C10.0616 18.4167 9.52108 18.6405 9.12256 19.0391C8.72405 19.4376 8.50016 19.9781 8.50016 20.5417C8.50016 21.1052 8.72405 21.6457 9.12256 22.0443C9.52108 22.4428 10.0616 22.6667 10.6252 22.6667C11.1887 22.6667 11.7292 22.4428 12.1278 22.0443C12.5263 21.6457 12.7502 21.1052 12.7502 20.5417C12.7502 19.9781 12.5263 19.4376 12.1278 19.0391C11.7292 18.6405 11.1887 18.4167 10.6252 18.4167ZM23.3752 18.4167C22.8116 18.4167 22.2711 18.6405 21.8726 19.0391C21.474 19.4376 21.2502 19.9781 21.2502 20.5417C21.2502 21.1052 21.474 21.6457 21.8726 22.0443C22.2711 22.4428 22.8116 22.6667 23.3752 22.6667C23.9387 22.6667 24.4792 22.4428 24.8778 22.0443C25.2763 21.6457 25.5002 21.1052 25.5002 20.5417C25.5002 19.9781 25.2763 19.4376 24.8778 19.0391C24.4792 18.6405 23.9387 18.4167 23.3752 18.4167ZM22.3325 8.49999H11.6678C11.4347 8.49996 11.2051 8.55748 10.9995 8.66745C10.7939 8.77742 10.6186 8.93644 10.4892 9.13041L10.4013 9.28341L8.60216 12.8789C10.7952 13.5362 13.7503 14.1667 17.0002 14.1667C20.0347 14.1667 22.8099 13.617 24.9477 13.0092L25.3967 12.8789L23.599 9.28341C23.4947 9.07489 23.3406 8.89534 23.1503 8.76065C22.9601 8.62597 22.7395 8.54033 22.5082 8.51132L22.3339 8.49999H22.3325Z" fill="black"/>
</svg>
