<svg width="34" height="34" viewBox="0 0 34 34" fill="none" xmlns="http://www.w3.org/2000/svg">
<path d="M17.0002 4.25C17.0002 4.25 8.23666 11.815 3.33925 15.912C3.18334 16.0477 3.05774 16.2147 2.9706 16.4022C2.88347 16.5896 2.83676 16.7933 2.8335 17C2.8335 17.3757 2.98275 17.7361 3.24843 18.0017C3.5141 18.2674 3.87444 18.4167 4.25016 18.4167H7.0835V28.3333C7.0835 28.7091 7.23275 29.0694 7.49843 29.3351C7.76411 29.6007 8.12444 29.75 8.50016 29.75H12.7502C13.1259 29.75 13.4862 29.6007 13.7519 29.3351C14.0176 29.0694 14.1668 28.7091 14.1668 28.3333V22.6667H19.8335V28.3333C19.8335 28.7091 19.9828 29.0694 20.2484 29.3351C20.5141 29.6007 20.8744 29.75 21.2502 29.75H25.5002C25.8759 29.75 26.2362 29.6007 26.5019 29.3351C26.7676 29.0694 26.9168 28.7091 26.9168 28.3333V18.4167H29.7502C30.1259 18.4167 30.4862 18.2674 30.7519 18.0017C31.0176 17.7361 31.1668 17.3757 31.1668 17C31.1649 16.7894 31.115 16.5819 31.021 16.3934C30.927 16.2049 30.7913 16.0403 30.6242 15.912C25.7608 11.815 17.0002 4.25 17.0002 4.25Z" fill="black"/>
</svg>
